<?xml version="1.0" encoding="UTF-8" standalone="no"?>
<svg
   fill="none"
   viewBox="0 0 20.014946 18"
   version="1.1"
   id="svg1"
   sodipodi:docname="folder-open.svg"
   width="20.014946"
   height="18"
   inkscape:export-filename="C:\Users\Smith\Desktop\folder-open.png"
   inkscape:export-xdpi="96"
   inkscape:export-ydpi="96"
   xmlns:inkscape="http://www.inkscape.org/namespaces/inkscape"
   xmlns:sodipodi="http://sodipodi.sourceforge.net/DTD/sodipodi-0.dtd"
   xmlns="http://www.w3.org/2000/svg"
   xmlns:svg="http://www.w3.org/2000/svg">
  <defs
     id="defs1" />
  <sodipodi:namedview
     id="namedview1"
     pagecolor="#ffffff"
     bordercolor="#000000"
     borderopacity="0.25"
     inkscape:showpageshadow="2"
     inkscape:pageopacity="0.0"
     inkscape:pagecheckerboard="0"
     inkscape:deskcolor="#d1d1d1">
    <inkscape:page
       x="0"
       y="0"
       width="20.014946"
       height="18"
       id="page2"
       margin="0"
       bleed="0" />
  </sodipodi:namedview>
  <path
     stroke="currentColor"
     stroke-linecap="round"
     stroke-linejoin="round"
     stroke-width="2"
     d="m 2.539,17 h 12.476 l 4,-9 H 5 M 2.539,17 A 1,1 0 0 1 1.625,15.594 L 5,8 M 2.539,17 H 2 A 1,1 0 0 1 1,16 V 2 A 1,1 0 0 1 2,1 h 5.443 a 1,1 0 0 1 0.8,0.4 l 2.7,3.6 H 16 a 1,1 0 0 1 1,1 V 8 H 5"
     id="path1" />
</svg>
