<?xml version="1.0" encoding="UTF-8" standalone="no"?>
<svg
   height="19.512293"
   viewBox="0 0 19.97465 19.512293"
   width="19.974649"
   version="1.1"
   id="svg1"
   sodipodi:docname="github.svg"
   inkscape:export-filename="C:\Users\Smith\Desktop\github.svg"
   inkscape:export-xdpi="96"
   inkscape:export-ydpi="96"
   xmlns:inkscape="http://www.inkscape.org/namespaces/inkscape"
   xmlns:sodipodi="http://sodipodi.sourceforge.net/DTD/sodipodi-0.dtd"
   xmlns="http://www.w3.org/2000/svg"
   xmlns:svg="http://www.w3.org/2000/svg">
  <defs
     id="defs1" />
  <sodipodi:namedview
     id="namedview1"
     pagecolor="#ffffff"
     bordercolor="#000000"
     borderopacity="0.25"
     inkscape:showpageshadow="2"
     inkscape:pageopacity="0.0"
     inkscape:pagecheckerboard="0"
     inkscape:deskcolor="#d1d1d1">
    <inkscape:page
       x="0"
       y="0"
       width="19.974649"
       height="19.512293"
       id="page2"
       margin="0"
       bleed="0" />
  </sodipodi:namedview>
  <path
     d="M 10.007248,2.626775e-6 A 10,10 0 0 0 6.8472483,19.490003 c 0.5,0.09 0.68,-0.22 0.68,-0.48 v -1.7 c -2.79,0.6 -3.38,-1.31 -3.38,-1.31 a 2.69,2.69 0 0 0 -1.14,-1.5 c -0.91,-0.62 0.07,-0.61 0.07,-0.61 a 2.13,2.13 0 0 1 1.53,1 2.14,2.14 0 0 0 2.91,0.83 2.16,2.16 0 0 1 0.63,-1.34 c -2.14,-0.21 -4.52,-1.07 -4.52,-4.9000004 a 3.89,3.89 0 0 1 1,-2.69 3.57,3.57 0 0 1 0.1,-2.64 c 0,0 0.84,-0.27 2.75,1 a 9.63,9.63 0 0 1 4.9999997,0 c 1.91,-1.29 2.75,-1 2.75,-1 a 3.57,3.57 0 0 1 0.1,2.64 3.89,3.89 0 0 1 1,2.69 c 0,3.8400004 -2.34,4.6800004 -4.57,4.9300004 a 2.39,2.39 0 0 1 0.68,1.85 v 2.75 c 0,0.33 0.18,0.58 0.69,0.48 A 10,10 0 0 0 10.007248,2.626775e-6 Z"
     fill-rule="evenodd"
     id="path1" />
</svg>
