<svg height="96" width="96" xmlns="http://www.w3.org/2000/svg" xmlns:xlink="http://www.w3.org/1999/xlink"><linearGradient id="a"><stop offset="0" stop-color="#fefefe"/><stop offset="1" stop-color="#fefefe" stop-opacity="0"/></linearGradient><linearGradient id="b" gradientUnits="userSpaceOnUse" x1="36.357143" x2="36.357143" xlink:href="#a" y1="6" y2="63.893143"/><filter id="c" color-interpolation-filters="sRGB" height="1.384" width="1.384" x="-.192" y="-.192"><feGaussianBlur stdDeviation="5.28"/></filter><linearGradient id="d" gradientUnits="userSpaceOnUse" x1="48" x2="48" xlink:href="#a" y1="20.220806" y2="138.66119"/><radialGradient id="e" cx="48" cy="90.171875" gradientTransform="matrix(1.1573129 0 0 .99590774 -7.551021 .197132)" gradientUnits="userSpaceOnUse" r="42" xlink:href="#a"/><clipPath id="f"><rect height="84" rx="6" width="84" x="6" y="6"/></clipPath><linearGradient id="g" gradientUnits="userSpaceOnUse" x1="48" x2="48" y1="-6" y2="-90.012283"><stop offset="0" stop-color="#94b6db"/><stop offset="1" stop-color="#3465a4"/></linearGradient><linearGradient id="h" gradientTransform="matrix(1.0058652 0 0 .994169 100 0)" gradientUnits="userSpaceOnUse" x1="45.447727" x2="45.447727" y1="92.539597" y2="7.01654"><stop offset="0"/><stop offset="1" stop-opacity=".588235"/></linearGradient><linearGradient id="i" gradientTransform="matrix(1.0238095 0 0 1.0119048 -1.142857 -98.071429)" gradientUnits="userSpaceOnUse" x1="32.251034" x2="32.251034" xlink:href="#h" y1="6.131708" y2="90.238609"/><linearGradient id="j" gradientTransform="translate(0 -97)" gradientUnits="userSpaceOnUse" x1="32.251034" x2="32.251034" xlink:href="#h" y1="6.131708" y2="90.238609"/><radialGradient id="k" cx="5.454997" cy="20.123863" gradientTransform="matrix(.941776 0 0 .274284 .317611 14.4024)" gradientUnits="userSpaceOnUse" r="4.331029"><stop offset="0"/><stop offset="1" stop-opacity="0"/></radialGradient><linearGradient id="l" gradientUnits="userSpaceOnUse" x1="-20.122965" x2="-20.02195" xlink:href="#a" y1="3.756084" y2="71.946297"/><linearGradient id="m" gradientTransform="matrix(.40558412 0 0 .39999599 1.549939 2.117948)" gradientUnits="userSpaceOnUse" x1="114.99662" x2="135.83893" y1="165.98375" y2="120.67539"><stop offset="0" stop-color="#ffe45d"/><stop offset="1" stop-color="#ffb01c"/></linearGradient><linearGradient id="n" gradientUnits="userSpaceOnUse" x1="62.684563" x2="51.501648" y1="65.534477" y2="46.1651"><stop offset="0" stop-color="#aa6f00"/><stop offset="1" stop-color="#d99800"/></linearGradient><g fill="url(#i)"><path d="m12-95.03125c-5.5110903 0-10.03125 4.52016-10.03125 10.03125v71c0 5.5110902 4.5201598 10.03125 10.03125 10.03125h72c5.51109 0 10.03125-4.5201597 10.03125-10.03125v-71c0-5.51109-4.52016-10.03125-10.03125-10.03125z" opacity=".08" transform="scale(1 -1)"/><path d="m12-94.03125c-4.971633 0-9.03125 4.059617-9.03125 9.03125v71c0 4.9716329 4.0596171 9.03125 9.03125 9.03125h72c4.971633 0 9.03125-4.059617 9.03125-9.03125v-71c0-4.971633-4.059617-9.03125-9.03125-9.03125z" opacity=".1" transform="scale(1 -1)"/><path d="m12-93c-4.4091333 0-8 3.590867-8 8v71c0 4.4091333 3.5908667 8 8 8h72c4.409133 0 8-3.5908667 8-8v-71c0-4.409133-3.590867-8-8-8z" opacity=".2" transform="scale(1 -1)"/><rect height="85" opacity=".3" rx="7" transform="scale(1 -1)" width="86" x="5" y="-92"/></g><rect fill="url(#j)" height="84" opacity=".45" rx="6" transform="scale(1 -1)" width="84" x="6" y="-91"/><rect fill="url(#g)" height="84" rx="6" transform="scale(1 -1)" width="84" x="6" y="-90"/><path d="m12 6c-3.324 0-6 2.676-6 6v2 68 2c0 .334721.04135.6507.09375.96875.0487.295596.09704.596915.1875.875.00988.03038.020892.0636.03125.09375.098865.287771.2348802.547452.375.8125.1445918.273507.3156161.535615.5.78125s.3737765.473472.59375.6875c.439947.428056.94291.814526 1.5 1.09375.278545.139612.5734731.246947.875.34375-.2562018-.100222-.4867109-.236272-.71875-.375-.00741-.0044-.023866.0045-.03125 0-.031933-.0193-.062293-.04251-.09375-.0625-.120395-.0767-.2310226-.163513-.34375-.25-.1061728-.0808-.2132809-.161112-.3125-.25-.1779299-.161433-.3474596-.345388-.5-.53125-.1075789-.130255-.2183939-.265285-.3125-.40625-.025089-.03838-.038446-.08587-.0625-.125-.064763-.103032-.1302275-.204517-.1875-.3125-.1010083-.194706-.2056748-.415701-.28125-.625-.00796-.02181-.023589-.04055-.03125-.0625-.0318251-.09195-.0358045-.186831-.0625-.28125-.0303323-.106618-.0703894-.203031-.09375-.3125-.0728786-.341512-.125-.698205-.125-1.0625v-2-68-2c0-2.781848 2.2181517-5 5-5h2 68 2c2.781848 0 5 2.218152 5 5v2 68 2c0 .364295-.05212.720988-.125 1.0625-.04415.206893-.08838.397658-.15625.59375-.0077.02195-.0233.04069-.03125.0625-.06274.173739-.138383.367449-.21875.53125-.04158.0828-.07904.169954-.125.25-.0546.09721-.126774.18835-.1875.28125-.09411.140965-.204921.275995-.3125.40625-.143174.17445-.303141.346998-.46875.5-.01117.0102-.01998.02115-.03125.03125-.138386.125556-.285091.234436-.4375.34375-.102571.07315-.204318.153364-.3125.21875-.0074.0045-.02384-.0044-.03125 0-.232039.138728-.462548.274778-.71875.375.301527-.0968.596455-.204138.875-.34375.55709-.279224 1.060053-.665694 1.5-1.09375.219973-.214028.409366-.441865.59375-.6875s.355408-.507743.5-.78125c.14012-.265048.276135-.524729.375-.8125.01041-.03078.02133-.06274.03125-.09375.09046-.278085.1388-.579404.1875-.875.0524-.31805.09375-.634029.09375-.96875v-2-68-2c0-3.324-2.676-6-6-6z" fill="url(#b)" opacity=".4"/><path d="m12 90c-3.324 0-6-2.676-6-6v-2-68-2c0-.334721.04135-.6507.09375-.96875.0487-.295596.09704-.596915.1875-.875.00988-.03038.020892-.0636.03125-.09375.098865-.287771.2348802-.547452.375-.8125.1445918-.273507.3156161-.535615.5-.78125s.3737765-.473472.59375-.6875c.439947-.428056.94291-.814526 1.5-1.09375.278545-.139612.5734731-.246947.875-.34375-.2562018.100222-.4867109.236272-.71875.375-.00741.0044-.023866-.0045-.03125 0-.031933.0193-.062293.04251-.09375.0625-.120395.0767-.2310226.163513-.34375.25-.1061728.0808-.2132809.161112-.3125.25-.1779299.161433-.3474596.345388-.5.53125-.1075789.130255-.2183939.265285-.3125.40625-.025089.03838-.038446.08587-.0625.125-.064763.103032-.1302275.204517-.1875.3125-.1010083.194706-.2056748.415701-.28125.625-.00796.02181-.023589.04055-.03125.0625-.0318251.09195-.0358045.186831-.0625.28125-.0303323.106618-.0703894.203031-.09375.3125-.0728786.341512-.125.698205-.125 1.0625v2 68 2c0 2.781848 2.2181517 5 5 5h2 68 2c2.781848 0 5-2.218152 5-5v-2-68-2c0-.364295-.05212-.720988-.125-1.0625-.04415-.206893-.08838-.397658-.15625-.59375-.0077-.02195-.0233-.04069-.03125-.0625-.06274-.173739-.138383-.367449-.21875-.53125-.04158-.0828-.07904-.169954-.125-.25-.0546-.09721-.126774-.18835-.1875-.28125-.09411-.140965-.204921-.275995-.3125-.40625-.143174-.17445-.303141-.346998-.46875-.5-.01117-.0102-.01998-.02115-.03125-.03125-.138386-.125556-.285091-.234436-.4375-.34375-.102571-.07315-.204318-.153364-.3125-.21875-.0074-.0045-.02384.0044-.03125 0-.232039-.138728-.462548-.274778-.71875-.375.301527.0968.596455.204138.875.34375.55709.279224 1.060053.665694 1.5 1.09375.219973.214028.409366.441865.59375.6875s.355408.507743.5.78125c.14012.265048.276135.524729.375.8125.01041.03078.02133.06274.03125.09375.09046.278085.1388.579404.1875.875.0524.31805.09375.634029.09375.96875v2 68 2c0 3.324-2.676 6-6 6z" fill="url(#e)" opacity=".2"/><path d="m9.7669125 19.812387a4.3310289 1.524699 0 1 1 -8.6620579 0 4.3310289 1.524699 0 1 1 8.6620579 0z" fill="url(#k)" opacity=".3" transform="matrix(.692676 0 0 .9838008 -4.787255 26.885961)"/><path d="m-39.415179 45.009157c.405911-8.907831 13.059559-35.4948049 19.198736-35.6311499 6.140317-.13637 15.970931 20.7884789 17.97979 31.8851549 0 0-13.317577-25.94385-17.843832-25.885596-4.561969.05825-16.380591 22.518059-14.297447 25.227422 2.065843 2.686863 18.293613-2.308953 18.293613-2.308953-.868706.614807-10.129051 5.978191-18.97334 8.367736-2.095769.133449-4.221564.691724-4.35752-1.654614z" fill="none" opacity=".6" stroke="url(#l)"/><rect height="66" rx="12" style="opacity:.1;stroke:#fefefe;stroke-width:.5;stroke-linecap:round;clip-path:url(#f);fill:url(#d);filter:url(#c)" width="66" x="15" y="15"/><g transform="matrix(1.2975857 0 0 1.2975857 -14.731666 -14.369975)"><g fill="#2c5f89"><path d="m47.8125 22.96875c-2.070832-.02603-4.221656.25164-6.53125.90625-1.581632.447306-3.37913 1.146714-4.96875 2.34375-1.660418 1.250349-3.09375 3.272231-3.09375 5.84375v2.21875h-2.09375c-2.40328 0-4.449322 1.081878-5.75 2.71875-1.222988 1.539103-1.834946 3.320021-2.40625 5-1.339147 3.924628-1.238358 7.882854-.0625 12.5.450986 1.7745 1.132353 3.605656 2.46875 5.09375 1.386452 1.54383 3.430629 2.46875 5.75 2.46875h4.84375.8125c.0027-.000016.09102.000149.09375 0 .0027-.000149.122285-.03097.125-.03125.0027-.000282.09105.000414.09375 0s.09107.000545.09375 0c.0027-.000545.0911-.03058.09375-.03125.0026-.000674.09114-.03045.09375-.03125.0026-.000802.09118-.03032.09375-.03125.0026-.000928.09123-.0302.09375-.03125.0025-.0011.09128-.03008.09375-.03125.0025-.0012.09134-.06121.09375-.0625.0024-.0013.06016-.02984.0625-.03125.0023-.0014.09148-.06098.09375-.0625.0023-.0015.09156-.06087.09375-.0625.0022-.0016.06039-.06077.0625-.0625.0021-.0017.06048-.06067.0625-.0625.002-.0018.09182-.06057.09375-.0625.0019-.0019.06067-.09173.0625-.09375.0018-.002.06077-.06039.0625-.0625.0017-.0021.06087-.06031.0625-.0625.0016-.0022.06098-.09148.0625-.09375.0015-.0023.06109-.09141.0625-.09375.0014-.0023.02996-.06009.03125-.0625.0013-.0024.06133-.09128.0625-.09375.0012-.0025.0302-.09123.03125-.09375.0011-.0025.03032-.09118.03125-.09375.000928-.0026.03045-.09114.03125-.09375.000802-.0026.03058-.0911.03125-.09375.000674-.0026.0307-.09107.03125-.09375.000545-.0027-.000414-.09105 0-.09375s-.000282-.09103 0-.09375c.000282-.0027.0311-.122274.03125-.125.000149-.0027-.000016-.09102 0-.09375v-.8125-4.28125c0-.763419.519094-1.820808 1.4375-2.65625.432727-.393637.992701-.741082 1.5-.96875s1.007253-.3125 1.09375-.3125h10.1875c4.788528 0 8.3125-4.273733 8.3125-8.75v-10.1875c0-2.316345-1.093702-4.265586-2.59375-5.59375-1.448085-1.282156-3.208579-2.097026-4.9375-2.59375-1.931755-.55483-3.930348-.880237-6-.90625z" opacity=".05"/><path d="m47.8125 23.90625c-1.978568-.02487-4.050983.242874-6.28125.875-1.513884.428146-3.198549 1.089803-4.65625 2.1875-1.485789 1.118848-2.71875 2.866248-2.71875 5.09375v3.15625h-3.03125c-2.124923 0-3.900275.951695-5.03125 2.375-1.096089 1.379403-1.680658 3.04454-2.25 4.71875-1.273375 3.731872-1.179781 7.458906-.03125 11.96875.433453 1.705512 1.063488 3.366305 2.25 4.6875 1.206864 1.343856 2.986321 2.15625 5.0625 2.15625h4.84375.8125a1.1003999 1.1003999 0 0 0 1.09375-1.09375v-.8125-4.28125c0-1.138241.686453-2.376278 1.75-3.34375 1.049515-.954707 2.527431-1.53125 3.21875-1.53125h10.1875c4.225582 0 7.375-3.827413 7.375-7.8125v-10.1875c0-2.02472-.95004-3.727578-2.28125-4.90625-1.31142-1.16115-2.928042-1.905415-4.5625-2.375-1.862672-.534988-3.7718-.850136-5.75-.875z" opacity=".15"/><path d="m47.8125 25c-1.866466-.02346-3.828684.23719-5.96875.84375-1.435165.405883-3.020526 1.027101-4.3125 2s-2.28125 2.387516-2.28125 4.21875v4.25h-4.125c-1.810499 0-3.208529.776065-4.15625 1.96875s-1.532597 2.72487-2.09375 4.375c-1.197461 3.50939-1.117628 6.95525 0 11.34375.411825 1.62041.993993 3.09855 2 4.21875s2.457053 1.8125 4.25 1.8125h4.84375.8125v-.8125-4.28125c0-1.54638.860417-3.03433 2.09375-4.15625s2.831864-1.8125 3.96875-1.8125h10.1875c3.535091 0 6.28125-3.32769 6.28125-6.71875v-10.1875c0-1.691553-.768301-3.086194-1.90625-4.09375s-2.628478-1.686066-4.15625-2.125c-1.787859-.513501-3.571034-.82029-5.4375-.84375z" opacity=".3"/></g><path d="m58.9375 35.90625a1.2187565 1.2187565 0 0 0 -.09375.03125c.01045-.002-.19773.03419-.1875.03125.01023-.0029-.197437.06631-.1875.0625.0099-.0038-.165819.06716-.15625.0625.0096-.0047-.165379.09922-.15625.09375.0091-.0055-.164871.09999-.15625.09375.0086-.0062-.133047.131967-.125.125.008-.007-.132413.132638-.125.125.0074-.0076-.131724.133252-.125.125.0067-.0083-.130983.133803-.125.125.006-.0088-.09895.165539-.09375.15625.0052-.0093-.06687.197204-.0625.1875.0044-.0097-.06602.166297-.0625.15625.0035-.01005-.06513.166564-.0625.15625.0026-.01031-.03298.198003-.03125.1875.0017-.0105-.03206.198113-.03125.1875.000811-.01061.000111.166893 0 .15625v.8125 3.65625c0 .83471-.551755 2.081571-1.46875 3-.917527.918961-2.165361 1.46875-2.96875 1.46875l-9.75.0625c-2.087464 0-4.156568.68803-5.75 2.125-1.626784 1.46705-2.59375 3.660558-2.59375 6.125v10.71875c0 2.324299 1.085835 4.289866 2.59375 5.625 1.454603 1.287931 3.207288 2.065411 4.9375 2.5625 3.866533 1.110537 7.93575 1.342622 12.5625.03125 1.572499-.444722 3.364704-1.135849 4.96875-2.34375 1.669287-1.25703 3.125-3.287743 3.125-5.875v-2.1875h2.0625c2.413678 0 4.478038-1.109929 5.78125-2.75 1.216857-1.531394 1.86026-3.271302 2.4375-4.96875 1.343624-3.937735 1.207319-7.94451.03125-12.5625-.451574-1.776821-1.129071-3.570749-2.46875-5.0625-1.389656-1.547402-3.446047-2.5-5.78125-2.5h-4.84375-.6875c.0064.000592-.06879.0026-.125 0-.04216-.002-.09858 0-.09375 0 .01128 0-.198734.001-.1875 0z" fill="#b07400" opacity=".05"/><path d="m59.0625 37.125a.85063183.85063183 0 0 0 -.6875.84375v.8125 3.65625c0 1.276802-.694791 2.755544-1.8125 3.875-1.11812 1.119868-2.591133 1.8125-3.84375 1.8125l-9.75.0625c-1.820642 0-3.590703.597948-4.9375 1.8125-1.358755 1.225339-2.1875 3.067248-2.1875 5.21875v10.71875c0 1.949095.900158 3.578915 2.1875 4.71875 1.272044 1.12629 2.858496 1.849875 4.46875 2.3125 3.693092 1.060722 7.454183 1.253004 11.875 0 1.496011-.42309 3.173665-1.055628 4.59375-2.125 1.441796-1.085722 2.625-2.768695 2.625-4.90625v-3.40625h3.28125c2.053553 0 3.72312-.910283 4.8125-2.28125 1.062409-1.337024 1.68252-2.956253 2.25-4.625 1.256149-3.681374 1.141515-7.36144 0-11.84375-.428543-1.686201-1.041961-3.286926-2.1875-4.5625-1.161274-1.293095-2.86311-2.09375-4.875-2.09375h-4.84375-.8125a.85063183.85063183 0 0 0 -.15625 0z" fill="#b07400" opacity=".15"/><path d="m59.21875 37.96875v.8125 3.65625c0 1.569933-.811589 3.215884-2.0625 4.46875s-2.888505 2.0625-4.4375 2.0625l-9.75.0625c-1.634787 0-3.201893.535833-4.375 1.59375-1.173107 1.05792-1.90625 2.65688-1.90625 4.59375v10.71875c0 1.69155.768301 3.08619 1.90625 4.09375s2.628469 1.68607 4.15625 2.125c3.575718 1.02701 7.126116 1.21313 11.40625 0 1.435159-.40588 3.020527-1.0271 4.3125-2s2.28125-2.38752 2.28125-4.21875v-4.25h4.125c1.810498 0 3.20853-.77606 4.15625-1.96875s1.532601-2.72487 2.09375-4.375c1.197465-3.50939 1.117627-6.95524 0-11.34375-.411823-1.620414-.993993-3.098547-2-4.21875s-2.457054-1.8125-4.25-1.8125h-4.84375z" fill="#b07400" opacity=".3"/><path d="m59.394351 64.937319c0 3.087968-2.717419 4.651953-5.475389 5.431942-4.14912 1.175996-7.478965.995993-10.94671 0-2.89588-.831984-5.475388-2.531971-5.475388-5.431942v-10.187898c0-2.93197 2.478111-5.435946 5.475388-5.435946l10.77163-.69068c3.646194 0 6.029213-2.244617 6.029213-5.928582l.992132-4.924621h4.104513c3.187888 0 4.688549 2.335975 5.475378 5.431944 1.095075 4.299956 1.14375 7.515926 0 10.867892-1.107237 3.255967-2.291548 5.431945-5.475378 5.431945h-5.475389-10.946721v-.02136h10.946721v5.457318z" fill="url(#m)"/><path d="m52.00209 66.124377c0-1.12399.920683-2.03598 2.052262-2.03598 1.135637 0 2.052251.91199 2.052251 2.03598 0 1.127988-.916614 2.039978-2.052251 2.039978-1.131579 0-2.052262-.91199-2.052262-2.039978z" fill="#ac7100"/><path d="m52.00209 65.124377c0-1.12399.920683-2.03598 2.052262-2.03598 1.135637 0 2.052251.91199 2.052251 2.03598 0 1.127988-.916614 2.039978-2.052251 2.039978-1.131579 0-2.052262-.91199-2.052262-2.039978z" fill="#fefefe"/><path d="m59.943111 64.937321c0 3.087968-3.266178 4.651952-6.024147 5.431941-4.149121 1.175997-7.478966.995994-10.94671 0-2.895881-.831983-5.475389-2.53197-5.475389-5.431941v-10.729103c0-3.474035 2.556505-5.358632 5.475389-5.358632l9.735773-.05756c3.646194 0 7.336561-3.680098 7.336561-7.364062v-3.658374h4.825154c3.187887 0 4.688548 2.335976 5.475378 5.431944 1.095075 4.299957 1.14375 7.515927 0 10.867892-1.107236 3.255968-2.291548 5.818519-5.475378 5.818519h-4.926631-11.495479v-.02136l11.495479.03866v5.032086z" fill="none" stroke="url(#n)" stroke-width="1.629462"/><path d="m36.681387 30.935187c0-3.08797.839561-4.767953 5.475389-5.567947 3.147337-.543994 7.182889-.611991 10.946721 0 2.972922.483996 5.475377 2.667976 5.475377 5.567947v10.187897c0 2.98797-2.429447 5.435945-5.475377 5.435945l-9.927587.541204c-3.715144 0-7.551811 3.201285-7.551811 6.733249l-.313588 4.26943h-3.76382c-3.183831 0-5.03735-2.263976-5.816073-5.431944-1.050461-4.255957-1.005848-6.791931 0-10.867891.872008-3.555966 3.65837-5.431946 6.842199-5.431946h4.10857 10.950778v-.03618h-10.950778z" fill="#05aaff"/><path d="m36.056883 31.062678c0-3.087969 3.266178-4.651953 6.024159-5.431945 4.14912-1.175988 7.478965-.995991 10.94671 0 2.895869.831992 5.475388 2.531973 5.475388 5.431945v10.187897c0 2.931972-2.478122 5.899837-5.475388 5.899837h-10.19917c-2.863332 0-6.873164 3.107968-6.873164 6.791932v4.288062h-4.825154c-3.187889 0-4.68855-2.335976-5.475385-5.431945-1.095076-4.299956-1.143746-7.515926 0-10.867891 1.107245-3.255968 2.291551-5.81852 5.475385-5.81852h4.926619 11.49548v.02137l-11.49548-.03866v-5.032088z" fill="#05aaff" stroke="#0071a3" stroke-width="1.629462"/><path d="m40.030252 28.998655c0-1.069172.889328-1.933607 1.991143-1.933607 1.097882 0 1.991135.864435 1.991135 1.933607 0 1.065379-.893253 1.929814-1.991135 1.929814-1.101815 0-1.991143-.864435-1.991143-1.929814z" fill="#274e70"/><path d="m40.030252 29.998655c0-1.069172.889328-1.933607 1.991143-1.933607 1.097882 0 1.991135.864435 1.991135 1.933607 0 1.065379-.893253 1.929814-1.991135 1.929814-1.101815 0-1.991143-.864435-1.991143-1.929814z" fill="#fefefe"/></g></svg>